#!OML:ASF F:\VICON\USERDATA\INSTALL\rory3\rory3.ASF
:FULLY-SPECIFIED
:DEGREES
422
root 0.425475 16.8421 -26.5325 -137.131 -24.1263 -202.734
lowerback -14.2245 -3.8051 0.699759
upperback -12.5328 -7.63612 -5.75561
thorax -6.50573 -5.25298 -7.05243
lowerneck -21.0028 -3.07632 -10.1115
upperneck 14.9103 -1.478 1.08564
head 8.17025 -1.22208 1.7921
rclavicle -1.03343e-013 -8.90555e-014
rhumerus 0.254683 -44.5878 -27.8199
rradius 13.5256
rwrist 31.4632
rhand -7.26321 9.34032
rfingers 7.12502
rthumb 18.6177 -19.7888
lclavicle -1.03343e-013 -8.90555e-014
lhumerus -26.6986 -18.15 36.8491
lradius 15.1152
lwrist -61.209
lhand 10.7109 24.4169
lfingers 7.12502
lthumb 35.8003 50.7822
rfemur -223.557 -194.4 -173.76
rtibia 38.4948
rfoot -62.0144 -39.3252
rtoes 41.8855
lfemur -32.68 0.635352 -18.7634
ltibia 37.4474
lfoot -14.0609 18.0632
ltoes 27.0315
423
root 0.426481 16.7835 -26.5265 -137.803 -24.4656 -201.988
lowerback -13.7287 -3.78021 1.10396
upperback -12.1645 -7.42266 -5.29379
thorax -6.28662 -5.04592 -6.73693
lowerneck -21.5441 -3.14669 -10.2777
upperneck 16.4624 -1.48041 1.25923
head 8.79792 -1.26807 1.8785
rclavicle 3.83654e-014 7.31528e-014
rhumerus 0.960272 -44.7659 -29.6498
rradius 13.5146
rwrist 30.3505
rhand -7.55317 9.63218
rfingers 7.12502
rthumb 18.3387 -19.5234
lclavicle 3.83654e-014 7.31528e-014
lhumerus -26.8757 -15.301 39.1738
lradius 14.9109
lwrist -63.4016
lhand 10.2931 24.0142
lfingers 7.12502
lthumb 35.4043 50.4748
rfemur -223.45 -193.617 -172.313
rtibia 39.1871
rfoot -60.1971 -39.742
rtoes 40.2082
lfemur -35.2256 0.940052 -19.9323
ltibia 38.1202
lfoot -14.2988 15.5171
ltoes 26.8713
424
root 0.424373 16.7305 -26.5243 -138.404 -25.1627 -201.043
lowerback -12.8976 -3.53936 2.18564
upperback -12.2817 -7.13118 -5.03247
thorax -6.91945 -4.94744 -6.94723
lowerneck -20.5264 -3.17908 -9.7495
upperneck 17.2338 -1.70103 0.581418
head 8.89288 -1.45434 1.53702
rclavicle -1.36664e-015 -9.62118e-014
rhumerus 0.518984 -44.9489 -30.7534
rradius 13.4849
rwrist 29.7426
rhand -7.8607 9.96698
rfingers 7.12502
rthumb 18.0429 -19.2161
lclavicle -1.36664e-015 -9.62118e-014
lhumerus -27.4082 -15.4164 42.2543
lradius 14.7797
lwrist -63.2873
lhand 10.2317 24.1594
lfingers 7.12502
lthumb 35.346 50.6339
rfemur -223.423 -192.447 -170.443
rtibia 39.9198
rfoot -58.3756 -39.6259
rtoes 38.5519
lfemur -37.9372 1.17314 -20.7682
ltibia 38.655
lfoot -13.1204 13.9452
ltoes 22.1944
425
root 0.438195 16.6649 -26.5484 -139.001 -25.2957 -200.214
lowerback -12.5583 -3.37135 2.32909
upperback -12.0986 -6.79708 -4.74651
thorax -6.81218 -4.71696 -6.68208
lowerneck -20.5693 -3.33011 -9.65185
upperneck 18.8676 -1.99771 0.780469
head 9.48682 -1.62988 1.54799
rclavicle -8.17253e-014 -6.99722e-014
rhumerus 0.611159 -46.5264 -32.2972
rradius 13.433
rwrist 29.8216
rhand -7.98451 10.4896
rfingers 7.12502
rthumb 17.9237 -18.7044
lclavicle -8.17253e-014 -6.99722e-014
lhumerus -27.378 -15.0397 45.1129
lradius 14.3979
lwrist -63.3862
lhand 10.2531 23.9931
lfingers 7.12502
lthumb 35.3664 50.4628
rfemur -223.405 -192.555 -169.349
rtibia 40.4636
rfoot -57.9365 -39.1113
rtoes 38.5485
lfemur -40.4867 1.78165 -22.0112
ltibia 39.2148
lfoot -12.1541 11.9234
ltoes 16.7478
426
root 0.464573 16.5915 -26.5715 -138.9 -24.1512 -200.732
lowerback -13.0816 -3.50764 0.258444
upperback -11.3065 -6.60589 -4.58975
thorax -5.3408 -4.34946 -5.45066
lowerneck -21.484 -3.44602 -9.37053
upperneck 19.9343 -2.11176 0.631561
head 10.0314 -1.71672 1.42365
rclavicle -5.30755e-014 2.70347e-014
rhumerus 3.89963 -54.8178 -36.5322
rradius 12.7306
rwrist 35.5541
rhand -7.97647 12.0294
rfingers 7.12502
rthumb 17.9315 -17.1639
lclavicle -5.30755e-014 2.70347e-014
lhumerus -26.5402 -12.8582 47.6366
lradius 14.0578
lwrist -64.0094
lhand 10.3339 23.7104
lfingers 7.12502
lthumb 35.443 50.1618
rfemur -223.849 -192.897 -170.305
rtibia 41.1543
rfoot -57.8639 -38.4615
rtoes 39.0467
lfemur -42.841 1.65298 -24.868
ltibia 39.514
lfoot -12.3532 10.0306
ltoes 14.3218
427
root 0.438891 16.5434 -26.6546 -139.195 -26.1368 -199.08
lowerback -17.5565 -4.51051 0.82646
upperback -8.29561 -7.19027 -2.51472
thorax 0.456505 -4.20232 -4.35303
lowerneck -24.6606 -3.42779 -9.033
upperneck 19.5556 -1.52558 -0.453611
head 10.4254 -1.52931 1.04038
rclavicle -1.42727e-013 -4.92986e-014
rhumerus 14.8912 -60.3751 -46.8496
rradius 12.2031
rwrist 37.3262
rhand -8.19178 12.5344
rfingers 7.12502
rthumb 17.7243 -16.6778
lclavicle -1.42727e-013 -4.92986e-014
lhumerus -23.5798 -4.10164 49.6443
lradius 13.2485
lwrist -67.9256
lhand 9.8276 23.2569
lfingers 7.12502
lthumb 34.9628 49.8217
rfemur -223.704 -191.7 -167.285
rtibia 41.3426
rfoot -57.2868 -38.4377
rtoes 37.9645
lfemur -45.9224 2.23406 -24.7785
ltibia 40.0949
lfoot -10.2352 7.86486
ltoes 5.85398
428
root 0.449965 16.5266 -26.5827 -140.768 -25.3756 -198.352
lowerback -10.6691 -2.72934 2.88916
upperback -11.7123 -5.66718 -4.16186
thorax -7.21696 -4.02667 -6.18044
lowerneck -20.8848 -3.38491 -8.29221
upperneck 23.0725 -2.38081 -0.323847
head 11.0565 -2.03834 0.848774
rclavicle 1.635e-014 3.73715e-014
rhumerus 0.548565 -51.9251 -36.0564
rradius 13.5861
rwrist 29.107
rhand -7.83099 12.2577
rfingers 7.12502
rthumb 18.0715 -16.9227
lclavicle 1.635e-014 3.73715e-014
lhumerus -27.2499 -11.1241 52.8605
lradius 13.9581
lwrist -66.6141
lhand 9.59785 23.0738
lfingers 7.12502
lthumb 34.7448 49.6891
rfemur -222.886 -191.076 -166.453
rtibia 41.6832
rfoot -54.6502 -38.4999
rtoes 36.1637
lfemur -47.0739 1.28727 -25.9447
ltibia 40.3228
lfoot -10.4148 7.50387
ltoes -1.45349
429
root 0.423109 16.5141 -26.5634 -142.422 -26.5937 -196.371
lowerback -9.26443 -2.40159 5.25716
upperback -11.5847 -5.11705 -3.57326
thorax -7.95506 -3.84553 -6.7732
lowerneck -20.7633 -3.33938 -8.01467
upperneck 24.3199 -2.40308 -0.739959
head 11.4964 -2.15184 0.632523
rclavicle -1.69464e-014 -5.00937e-014
rhumerus -0.455887 -51.5023 -36.0543
rradius 14.2047
rwrist 26.1173
rhand -7.56667 12.3835
rfingers 7.12502
rthumb 18.3257 -16.7732
lclavicle -1.69464e-014 -5.00937e-014
lhumerus -27.3797 -11.8004 56.4485
lradius 13.9286
lwrist -66.0015
lhand 9.35021 22.8419
lfingers 7.12502
lthumb 34.5098 49.511
rfemur -221.709 -189.319 -163.278
rtibia 41.6116
rfoot -52.5936 -37.7097
rtoes 34.6722
lfemur -48.7753 0.616141 -25.3896
ltibia 40.7192
lfoot -9.53349 6.43532
ltoes -10.4937
430
root 0.42296 16.4797 -26.59 -142.694 -26.0827 -196.236
lowerback -8.80577 -2.04505 4.60714
upperback -11.5594 -4.54399 -3.41472
thorax -8.00008 -3.47394 -6.20335
lowerneck -20.5173 -3.60965 -8.29781
upperneck 25.3204 -2.8001 -0.788066
head 11.8562 -2.42729 0.583412
rclavicle -9.2584e-014 -4.6118e-014
rhumerus -1.40677 -51.3617 -35.8108
rradius 14.7611
rwrist 23.0427
rhand -7.14457 12.5432
rfingers 7.12502
rthumb 18.7318 -16.5749
lclavicle -9.2584e-014 -4.6118e-014
lhumerus -27.3338 -11.6334 59.7552
lradius 13.8797
lwrist -65.5846
lhand 8.45099 22.5177
lfingers 7.12502
lthumb 33.6557 49.3773
rfemur -221.459 -189.047 -163.136
rtibia 41.6286
rfoot -51.8039 -37.0938
rtoes 35.1046
lfemur -50.6856 -0.107196 -26.9695
ltibia 40.7846
lfoot -9.34453 5.12958
ltoes -11.7305
431
root 0.450143 16.455 -26.5682 -143.811 -24.7027 -196.021
lowerback -6.91188 -1.64113 3.3783
upperback -11.2434 -3.756 -3.22122
thorax -8.47601 -2.89568 -5.20967
lowerneck -20.9745 -3.95796 -8.71933
upperneck 26.4152 -3.19764 -0.710218
head 12.4075 -2.69192 0.588493
rclavicle 7.43455e-014 1.01778e-013
rhumerus -1.30598 -53.5576 -36.2093
rradius 14.8907
rwrist 22.1377
rhand -6.91653 12.8926
rfingers 7.12502
rthumb 18.9511 -16.2042
lclavicle 7.43455e-014 1.01778e-013
lhumerus -26.8974 -11.248 63.0463
lradius 13.8692
lwrist -64.6265
lhand 6.81909 22.3446
lfingers 7.12502
lthumb 32.1035 49.5298
rfemur -220.548 -189.961 -163.447
rtibia 41.3422
rfoot -50.5059 -38.2561
rtoes 33.9167
lfemur -51.8064 -0.365637 -28.7103
ltibia 40.9517
lfoot -9.34137 4.61774
ltoes -16.2162
432
root 0.429422 16.4252 -26.6466 -144.438 -25.6856 -194.453
lowerback -7.88974 -1.44392 4.55315
upperback -10.7467 -3.38749 -2.4966
thorax -7.33874 -2.68089 -5.16803
lowerneck -21.4639 -4.20458 -8.80625
upperneck 27.3522 -3.52322 -0.725802
head 12.9015 -2.89242 0.513383
rclavicle -1.44914e-013 -3.4191e-014
rhumerus -0.689241 -55.8132 -37.2158
rradius 14.9405
rwrist 21.2961
rhand -6.95051 13.0975
rfingers 7.12502
rthumb 18.9184 -16.0025
lclavicle -1.44914e-013 -3.4191e-014
lhumerus -26.3704 -10.9067 66.0801
lradius 13.7147
lwrist -63.4163
lhand 5.38607 22.0932
lfingers 7.12502
lthumb 30.7381 49.5443
rfemur -219.819 -189.298 -161.139
rtibia 40.8415
rfoot -50.5616 -37.3891
rtoes 34.1672
lfemur -53.8475 -1.03858 -28.371
ltibia 41.1605
lfoot -8.98871 3.05588
ltoes -18.9276
433
root 0.427491 16.4036 -26.6823 -145.298 -26.1352 -192.823
lowerback -7.73286 -1.10462 5.52801
upperback -10.5605 -2.85231 -1.84768
thorax -7.16756 -2.41298 -5.02353
lowerneck -21.8628 -4.36901 -8.89458
upperneck 28.4613 -3.79434 -0.661829
head 13.4592 -3.07032 0.472523
rclavicle 9.26337e-014 3.49861e-014
rhumerus -0.814867 -58.0992 -37.4545
rradius 14.8756
rwrist 20.9488
rhand -6.50159 14.377
rfingers 7.12502
rthumb 19.3501 -14.6802
lclavicle 9.26337e-014 3.49861e-014
lhumerus -26.1897 -11.6031 69.3338
lradius 13.5414
lwrist -61.1859
lhand 3.81329 21.9219
lfingers 7.12502
lthumb 29.2374 49.6446
rfemur -219.062 -189.332 -159.193
rtibia 40.0889
rfoot -50.004 -37.2813
rtoes 33.6446
lfemur -55.913 -0.915259 -28.4388
ltibia 41.521
lfoot -8.45887 1.0618
ltoes -18.8226
434
root 0.413904 16.3934 -26.6675 -146.655 -26.151 -191.257
lowerback -6.18828 -0.665128 6.81203
upperback -10.5948 -2.1141 -1.4647
thorax -8.04015 -2.12412 -5.28417
lowerneck -21.9749 -4.47909 -9.22741
upperneck 29.7811 -4.10746 -0.217405
head 14.0809 -3.25946 0.613583
rclavicle -1.2921e-015 -7.95139e-015
rhumerus -2.22181 -57.6456 -36.6659
rradius 15.2166
rwrist 18.1016
rhand -6.30977 14.6899
rfingers 7.12502
rthumb 19.5346 -14.3487
lclavicle -1.2921e-015 -7.95139e-015
lhumerus -26.3296 -12.0757 72.2507
lradius 13.537
lwrist -59.4853
lhand 2.2833 21.7409
lfingers 7.12502
lthumb 27.7755 49.7087
rfemur -217.905 -188.818 -157.356
rtibia 39.4056
rfoot -48.382 -36.5259
rtoes 32.8575
lfemur -57.2404 -1.33888 -28.2775
ltibia 41.7364
lfoot -8.35387 -0.168751
ltoes -17.675
435
root 0.389921 16.3729 -26.7144 -147.453 -26.5689 -189.771
lowerback -6.84166 -0.512094 7.69861
upperback -10.0036 -1.87191 -0.790836
thorax -6.98895 -1.94417 -5.10363
lowerneck -22.0032 -4.58169 -8.94562
upperneck 30.01 -4.36387 -0.315563
head 14.1871 -3.36344 0.473114
rclavicle 2.01766e-014 -2.70347e-014
rhumerus -1.31549 -57.9984 -37.9896
rradius 15.4412
rwrist 15.8119
rhand -6.55106 14.4072
rfingers 7.12502
rthumb 19.3026 -14.6548
lclavicle 2.01766e-014 -2.70347e-014
lhumerus -25.3981 -10.5853 74.298
lradius 13.4637
lwrist -59.1094
lhand 1.30705 21.446
lfingers 7.12502
lthumb 26.8417 49.5608
rfemur -216.99 -188.093 -155.44
rtibia 38.587
rfoot -45.9613 -37.6701
rtoes 28.8529
lfemur -58.907 -1.54132 -28.2753
ltibia 41.9522
lfoot -7.78301 -2.22767
ltoes -16.6052
436
root 0.432436 16.3516 -26.7476 -147.592 -24.2409 -190.336
lowerback -6.50334 -0.247855 4.87925
upperback -9.49323 -1.35344 -0.787879
thorax -6.41745 -1.41852 -3.52311
lowerneck -21.9373 -4.58373 -8.29296
upperneck 29.9801 -4.56043 -0.510782
head 14.1387 -3.39761 0.252934
rclavicle -9.54166e-015 -2.38542e-014
rhumerus -0.293123 -58.9978 -39.6169
rradius 15.5338
rwrist 14.9268
rhand -6.77935 14.2492
rfingers 7.12502
rthumb 19.083 -14.8346
lclavicle -9.54166e-015 -2.38542e-014
lhumerus -24.5738 -11.7392 76.8726
lradius 13.5485
lwrist -56.0346
lhand 0.178363 21.6782
lfingers 7.12502
lthumb 25.7612 49.9543
rfemur -216.588 -190.376 -157.105
rtibia 38.1319
rfoot -46.964 -37.1892
rtoes 30.8661
lfemur -60.0309 -1.20159 -30.6708
ltibia 41.7249
lfoot -7.66466 -2.7106
ltoes -21.5922
